<svg version="1.2" xmlns="http://www.w3.org/2000/svg" viewBox="0 0 1280 256" width="640" height="128"><style>tspan{white-space:pre}.a{fill:#000bff}</style><path fill-rule="evenodd" class="a" d="m10.2 243l17.4-123.6h-26.6l5.6-38.5h27l2.3-15.8q3.3-21.7 11.5-33.5 8.2-12.2 20.4-16.8 12.5-4.6 26.9-4.6 11.9 0 19.4 2.3 2.3 0.7 4.4 1.4-1.3 0.4-2.6 0.9-12.2 4.6-20.4 16.8-8.2 11.8-11.5 33.5l-2.3 15.8h-27l-5.5 38.5h26.6l-17.4 123.6z"/><path fill-rule="evenodd" class="a" d="m106.5 243l17.4-123.6h-26.6l5.6-38.5h27l2.3-15.8q3.2-21.7 11.5-33.5 8.2-12.2 20.4-16.8 12.4-4.6 26.9-4.6 11.9 0 19.4 2.3 2.3 0.7 4.4 1.4-1.3 0.4-2.6 0.9-12.2 4.6-20.4 16.8-8.2 11.8-11.5 33.5l-2.3 15.8h-27l-5.5 38.5h26.6l-17.4 123.6z"/><path fill-rule="evenodd" d="m252.7 243h-49.6l17.4-123.6h-26.6l5.5-38.5h27l2.3-15.8q3.3-21.7 11.5-33.5 8.2-12.2 20.4-16.8 12.5-4.6 27-4.6 11.8 0 19.4 2.3 7.9 2.3 15.1 5.6l-19.1 36.5q-2.6-1.7-5.6-2.3-2.6-1-4.9-1-6.9 0-10.5 4.9-3.6 5-4.6 11.9l-1.7 12.8h32.3l-5.6 38.5h-32.3zm104.3 2.6q-24 0-37.2-12.5-13.1-12.5-13.1-36.5 0-3.6 0.3-6.9 0.3-3.3 0.6-6.9l14.2-101.9h27.9l-13.1 93.3q-0.3 4-0.7 7.3-0.3 2.9-0.3 7.2 0 17.1 7.2 25 7.6 7.6 22.1 7.6 14.1 0 24.6-6.3 10.5-6.6 17.4-20 7.3-13.5 10.2-34.2l11.2-79.9h28l-23 162.1h-27.7l2.8-19.6h-0.2q-6.9 8.1-16 13.3-15.8 8.9-35.2 8.9zm138.7-2.6h-27.9l23-162.1h27.6l-2.8 20q3-3.6 6.4-6.6 9.2-8.2 20.7-12.1 11.6-4 24.4-4 24 0 37.1 12.5 13.2 12.5 13.2 36.5 0 3.6-0.3 6.9 0 3.3-0.7 6.9l-14.1 102h-28l13.2-93.4q0.6-4 0.6-7.2 0.4-3.3 0.4-7.6 0-16.8-7.6-24.7-7.2-7.9-21.7-7.9-21.1 0-34.5 14.8-13.2 14.8-17.8 46.1zm19.8-142.1q0 0.1-0.1 0.1h0.1zm187.3 144.7q-21.7 0-36.5-9.2-14.4-9.5-21.7-25.3-7.2-16.1-7.2-35.8 0-18.8 5.9-35.9 5.9-17.4 17.1-31.2 11.5-13.8 27.3-21.7 16.1-8.2 35.9-8.2 23.3 0 39.1 11.8 16.1 11.5 21.4 34.5l-25.4 7.9q-2.6-13.8-11.5-22-8.5-8.2-24-8.2-14.1 0-25 6.6-10.8 6.5-18.4 17.4-7.5 10.8-11.5 23.7-3.6 12.8-3.6 25.6 0 12.5 3.9 23 4 10.2 12.5 16.5 8.6 6.2 22.1 6.2 16.7 0 28.6-8.5 11.8-8.9 18.4-23.1l23.7 11.2q-11.6 23-30.3 33.9-18.4 10.8-40.8 10.8zm143.7 0q-10.5 0-18.7-3.6-8.2-3.9-13.2-11.5-4.6-7.9-4.6-20 0-2.3 0-4.6 0.4-2.7 0.7-5l13.8-98.3h-33.5l3.2-21.7h33.4l6.1-43.4 30.3-15.8-8.4 59.2h37.6l-2.9 21.7h-37.7l-13 92.4q-0.3 2.3-0.6 4.9 0 2.3 0 5 0 8.8 3.2 13.4 3.7 4.3 11.9 4.3 3.9 0 8.9-0.6 5.2-1 10.8-3l-3.3 23q-6.2 1.7-12.5 2.7-6.2 0.9-11.5 0.9zm73-2.6h-27.6l22.7-162.1h27.9zm29.6-191.4h-32.9l5.3-37.8h32.9zm76.3 194q-20.7 0-36.5-8.9-15.5-9.2-24.4-24.9-8.5-16.2-8.5-37.2 0-19.1 6.6-36.2 6.5-17.4 18.4-30.9 12.1-13.5 28.6-21.3 16.4-7.9 36.5-7.9 21 0 36.5 8.8 15.4 8.9 24 24.7 8.5 15.8 8.5 36.8 0 19.4-6.5 37.2-6.6 17.4-18.8 30.9-12.1 13.5-28.6 21.4-16.1 7.5-35.8 7.5zm0.6-24.6q14.8 0 26-6.3 11.5-6.2 19.4-16.4 8.2-10.5 12.2-23.4 4.2-13.1 4.2-26.9 0-21.1-11.1-33.2-11.2-12.2-31.3-12.2-15.1 0-26.9 6.6-11.5 6.2-19.4 17.1-7.9 10.5-11.9 23.3-3.9 12.8-3.9 26 0 21 11.2 33.2 11.5 12.2 31.5 12.2zm131.6 22h-28l23-162.1h27.6l-2.8 20q3-3.6 6.5-6.5 9.2-8.2 20.7-12.2 11.5-3.9 24.3-3.9 24 0 37.2 12.5 13.1 12.5 13.1 36.5 0 3.6-0.3 6.9 0 3.2-0.7 6.9l-14.1 101.9h-28l13.2-93.4q0.6-3.9 0.6-7.2 0.4-3.3 0.4-7.6 0-16.8-7.6-24.6-7.2-7.9-21.7-7.9-21 0-34.5 14.8-13.2 14.8-17.8 46zm19.9-142.1q-0.1 0-0.1 0.1h0.1z"/></svg>